<svg xmlns="http://www.w3.org/2000/svg" viewBox="0 0 1440 900" width="1440" height="900" role="img" aria-label="Customer portal — price indications"><title>Customer portal — price indications</title><rect x="0" y="0" width="1440" height="900" rx="0" fill="#eef2f6" stroke="none"/><rect x="0" y="0" width="218" height="900" rx="0" fill="#0f2b33" stroke="none"/><g><circle cx="30" cy="34" r="11" fill="#14b8a6" stroke="none" stroke-width="1"/><path d="M 26 34 L 30 27 L 30 33 L 34 33 L 30 41 L 30 35 Z" fill="#0f2b33" stroke="none" stroke-width="2" stroke-linejoin="round" stroke-linecap="round"/></g><text x="50" y="33" font-family="Inter, 'Segoe UI', -apple-system, BlinkMacSystemFont, 'Helvetica Neue', Arial, sans-serif" font-size="15" fill="#ffffff" font-weight="700" text-anchor="start">PeakPower</text><text x="50" y="47" font-family="Inter, 'Segoe UI', -apple-system, BlinkMacSystemFont, 'Helvetica Neue', Arial, sans-serif" font-size="10" fill="#5eead4" font-weight="600" text-anchor="start">Customer portal</text><text x="26" y="105" font-family="Inter, 'Segoe UI', -apple-system, BlinkMacSystemFont, 'Helvetica Neue', Arial, sans-serif" font-size="12.5" fill="#cbd5e1" font-weight="400" text-anchor="start">Dashboard</text><text x="26" y="143" font-family="Inter, 'Segoe UI', -apple-system, BlinkMacSystemFont, 'Helvetica Neue', Arial, sans-serif" font-size="12.5" fill="#cbd5e1" font-weight="400" text-anchor="start">Connections</text><text x="26" y="181" font-family="Inter, 'Segoe UI', -apple-system, BlinkMacSystemFont, 'Helvetica Neue', Arial, sans-serif" font-size="12.5" fill="#cbd5e1" font-weight="400" text-anchor="start">Consumption</text><rect x="10" y="198" width="198" height="32" rx="7" fill="rgba(20,184,166,0.16)" stroke="none"/><rect x="10" y="198" width="3" height="32" rx="2" fill="#14b8a6" stroke="none"/><text x="26" y="219" font-family="Inter, 'Segoe UI', -apple-system, BlinkMacSystemFont, 'Helvetica Neue', Arial, sans-serif" font-size="12.5" fill="#ffffff" font-weight="600" text-anchor="start">Prices</text><text x="26" y="257" font-family="Inter, 'Segoe UI', -apple-system, BlinkMacSystemFont, 'Helvetica Neue', Arial, sans-serif" font-size="12.5" fill="#cbd5e1" font-weight="400" text-anchor="start">Trading</text><text x="26" y="295" font-family="Inter, 'Segoe UI', -apple-system, BlinkMacSystemFont, 'Helvetica Neue', Arial, sans-serif" font-size="12.5" fill="#cbd5e1" font-weight="400" text-anchor="start">Wallet</text><text x="26" y="333" font-family="Inter, 'Segoe UI', -apple-system, BlinkMacSystemFont, 'Helvetica Neue', Arial, sans-serif" font-size="12.5" fill="#cbd5e1" font-weight="400" text-anchor="start">Invoices</text><text x="26" y="870" font-family="Inter, 'Segoe UI', -apple-system, BlinkMacSystemFont, 'Helvetica Neue', Arial, sans-serif" font-size="10.5" fill="#94a3b8" font-weight="400" text-anchor="start">J. de Vries · Vandersteen Koe…</text><rect x="218" y="0" width="1222" height="56" rx="0" fill="#ffffff" stroke="none"/><line x1="218" y1="56" x2="1440" y2="56" stroke="#dbe3ec" stroke-width="1" stroke-linecap="round"/><text x="246" y="28" font-family="Inter, 'Segoe UI', -apple-system, BlinkMacSystemFont, 'Helvetica Neue', Arial, sans-serif" font-size="17" fill="#0f172a" font-weight="700" text-anchor="start">Price indications</text><text x="246" y="44" font-family="Inter, 'Segoe UI', -apple-system, BlinkMacSystemFont, 'Helvetica Neue', Arial, sans-serif" font-size="11" fill="#64748b" font-weight="400" text-anchor="start">Dutch power · indicative only</text><rect x="246" y="80" width="1166" height="40" rx="8" fill="#ccfbf1" stroke="#5eead4" stroke-width="1"/><text x="260" y="104.5" font-family="Inter, 'Segoe UI', -apple-system, BlinkMacSystemFont, 'Helvetica Neue', Arial, sans-serif" font-size="12" fill="#0f766e" font-weight="500" text-anchor="start">These are indicative market prices, not offers. A firm, time-limited price is issued only in response to a trade request.</text><rect x="246" y="136" width="378" height="174" rx="10" fill="#ffffff" stroke="#dbe3ec" stroke-width="1"/><rect x="264" y="154" width="56" height="20" rx="10" fill="#ccfbf1" stroke="#5eead4" stroke-width="1"/><text x="292" y="167.96" font-family="Inter, 'Segoe UI', -apple-system, BlinkMacSystemFont, 'Helvetica Neue', Arial, sans-serif" font-size="11" fill="#0f766e" font-weight="600" text-anchor="middle">BASE</text><text x="264" y="198" font-family="Inter, 'Segoe UI', -apple-system, BlinkMacSystemFont, 'Helvetica Neue', Arial, sans-serif" font-size="11.5" fill="#64748b" font-weight="600" text-anchor="start">Next month</text><text x="264" y="220" font-family="Inter, 'Segoe UI', -apple-system, BlinkMacSystemFont, 'Helvetica Neue', Arial, sans-serif" font-size="13" fill="#0f172a" font-weight="600" text-anchor="start">Sep 2026</text><text x="264" y="258" font-family="Inter, 'Segoe UI', -apple-system, BlinkMacSystemFont, 'Helvetica Neue', Arial, sans-serif" font-size="30" fill="#0f172a" font-weight="700" text-anchor="start">€ 78,45</text><text x="264" y="278" font-family="Inter, 'Segoe UI', -apple-system, BlinkMacSystemFont, 'Helvetica Neue', Arial, sans-serif" font-size="10.5" fill="#94a3b8" font-weight="400" text-anchor="start">€ / MWh</text><text x="606" y="258" font-family="Inter, 'Segoe UI', -apple-system, BlinkMacSystemFont, 'Helvetica Neue', Arial, sans-serif" font-size="14" fill="#15803d" font-weight="700" text-anchor="end">+1,25</text><text x="606" y="278" font-family="Inter, 'Segoe UI', -apple-system, BlinkMacSystemFont, 'Helvetica Neue', Arial, sans-serif" font-size="10" fill="#94a3b8" font-weight="400" text-anchor="end">observed 14:22</text><line x1="246" y1="290" x2="624" y2="290" stroke="#dbe3ec" stroke-width="1" stroke-linecap="round"/><text x="264" y="304" font-family="Inter, 'Segoe UI', -apple-system, BlinkMacSystemFont, 'Helvetica Neue', Arial, sans-serif" font-size="10" fill="#94a3b8" font-weight="400" text-anchor="start">Indication — not an offer</text><text x="606" y="304" font-family="Inter, 'Segoe UI', -apple-system, BlinkMacSystemFont, 'Helvetica Neue', Arial, sans-serif" font-size="11" fill="#0d9488" font-weight="600" text-anchor="end">Request a price →</text><rect x="640" y="136" width="378" height="174" rx="10" fill="#ffffff" stroke="#dbe3ec" stroke-width="1"/><rect x="658" y="154" width="56" height="20" rx="10" fill="#ccfbf1" stroke="#5eead4" stroke-width="1"/><text x="686" y="167.96" font-family="Inter, 'Segoe UI', -apple-system, BlinkMacSystemFont, 'Helvetica Neue', Arial, sans-serif" font-size="11" fill="#0f766e" font-weight="600" text-anchor="middle">BASE</text><text x="658" y="198" font-family="Inter, 'Segoe UI', -apple-system, BlinkMacSystemFont, 'Helvetica Neue', Arial, sans-serif" font-size="11.5" fill="#64748b" font-weight="600" text-anchor="start">Next quarter</text><text x="658" y="220" font-family="Inter, 'Segoe UI', -apple-system, BlinkMacSystemFont, 'Helvetica Neue', Arial, sans-serif" font-size="13" fill="#0f172a" font-weight="600" text-anchor="start">Q4 2026</text><text x="658" y="258" font-family="Inter, 'Segoe UI', -apple-system, BlinkMacSystemFont, 'Helvetica Neue', Arial, sans-serif" font-size="30" fill="#0f172a" font-weight="700" text-anchor="start">€ 84,20</text><text x="658" y="278" font-family="Inter, 'Segoe UI', -apple-system, BlinkMacSystemFont, 'Helvetica Neue', Arial, sans-serif" font-size="10.5" fill="#94a3b8" font-weight="400" text-anchor="start">€ / MWh</text><text x="1000" y="258" font-family="Inter, 'Segoe UI', -apple-system, BlinkMacSystemFont, 'Helvetica Neue', Arial, sans-serif" font-size="14" fill="#dc2626" font-weight="700" text-anchor="end">−0,45</text><text x="1000" y="278" font-family="Inter, 'Segoe UI', -apple-system, BlinkMacSystemFont, 'Helvetica Neue', Arial, sans-serif" font-size="10" fill="#94a3b8" font-weight="400" text-anchor="end">observed 14:22</text><line x1="640" y1="290" x2="1018" y2="290" stroke="#dbe3ec" stroke-width="1" stroke-linecap="round"/><text x="658" y="304" font-family="Inter, 'Segoe UI', -apple-system, BlinkMacSystemFont, 'Helvetica Neue', Arial, sans-serif" font-size="10" fill="#94a3b8" font-weight="400" text-anchor="start">Indication — not an offer</text><text x="1000" y="304" font-family="Inter, 'Segoe UI', -apple-system, BlinkMacSystemFont, 'Helvetica Neue', Arial, sans-serif" font-size="11" fill="#0d9488" font-weight="600" text-anchor="end">Request a price →</text><rect x="1034" y="136" width="378" height="174" rx="10" fill="#ffffff" stroke="#dbe3ec" stroke-width="1"/><rect x="1052" y="154" width="56" height="20" rx="10" fill="#ccfbf1" stroke="#5eead4" stroke-width="1"/><text x="1080" y="167.96" font-family="Inter, 'Segoe UI', -apple-system, BlinkMacSystemFont, 'Helvetica Neue', Arial, sans-serif" font-size="11" fill="#0f766e" font-weight="600" text-anchor="middle">BASE</text><text x="1052" y="198" font-family="Inter, 'Segoe UI', -apple-system, BlinkMacSystemFont, 'Helvetica Neue', Arial, sans-serif" font-size="11.5" fill="#64748b" font-weight="600" text-anchor="start">Next calendar year</text><text x="1052" y="220" font-family="Inter, 'Segoe UI', -apple-system, BlinkMacSystemFont, 'Helvetica Neue', Arial, sans-serif" font-size="13" fill="#0f172a" font-weight="600" text-anchor="start">Cal 2027</text><text x="1052" y="258" font-family="Inter, 'Segoe UI', -apple-system, BlinkMacSystemFont, 'Helvetica Neue', Arial, sans-serif" font-size="30" fill="#0f172a" font-weight="700" text-anchor="start">€ 79,90</text><text x="1052" y="278" font-family="Inter, 'Segoe UI', -apple-system, BlinkMacSystemFont, 'Helvetica Neue', Arial, sans-serif" font-size="10.5" fill="#94a3b8" font-weight="400" text-anchor="start">€ / MWh</text><text x="1394" y="258" font-family="Inter, 'Segoe UI', -apple-system, BlinkMacSystemFont, 'Helvetica Neue', Arial, sans-serif" font-size="14" fill="#15803d" font-weight="700" text-anchor="end">+0,35</text><text x="1394" y="278" font-family="Inter, 'Segoe UI', -apple-system, BlinkMacSystemFont, 'Helvetica Neue', Arial, sans-serif" font-size="10" fill="#94a3b8" font-weight="400" text-anchor="end">observed 14:22</text><line x1="1034" y1="290" x2="1412" y2="290" stroke="#dbe3ec" stroke-width="1" stroke-linecap="round"/><text x="1052" y="304" font-family="Inter, 'Segoe UI', -apple-system, BlinkMacSystemFont, 'Helvetica Neue', Arial, sans-serif" font-size="10" fill="#94a3b8" font-weight="400" text-anchor="start">Indication — not an offer</text><text x="1394" y="304" font-family="Inter, 'Segoe UI', -apple-system, BlinkMacSystemFont, 'Helvetica Neue', Arial, sans-serif" font-size="11" fill="#0d9488" font-weight="600" text-anchor="end">Request a price →</text><rect x="246" y="326" width="378" height="174" rx="10" fill="#ffffff" stroke="#dbe3ec" stroke-width="1"/><rect x="264" y="344" width="56" height="20" rx="10" fill="#e0e7ff" stroke="#a5b4fc" stroke-width="1"/><text x="292" y="357.96" font-family="Inter, 'Segoe UI', -apple-system, BlinkMacSystemFont, 'Helvetica Neue', Arial, sans-serif" font-size="11" fill="#3730a3" font-weight="600" text-anchor="middle">PEAK</text><text x="264" y="388" font-family="Inter, 'Segoe UI', -apple-system, BlinkMacSystemFont, 'Helvetica Neue', Arial, sans-serif" font-size="11.5" fill="#64748b" font-weight="600" text-anchor="start">Next month</text><text x="264" y="410" font-family="Inter, 'Segoe UI', -apple-system, BlinkMacSystemFont, 'Helvetica Neue', Arial, sans-serif" font-size="13" fill="#0f172a" font-weight="600" text-anchor="start">Sep 2026</text><text x="264" y="448" font-family="Inter, 'Segoe UI', -apple-system, BlinkMacSystemFont, 'Helvetica Neue', Arial, sans-serif" font-size="30" fill="#0f172a" font-weight="700" text-anchor="start">€ 96,15</text><text x="264" y="468" font-family="Inter, 'Segoe UI', -apple-system, BlinkMacSystemFont, 'Helvetica Neue', Arial, sans-serif" font-size="10.5" fill="#94a3b8" font-weight="400" text-anchor="start">€ / MWh</text><text x="606" y="448" font-family="Inter, 'Segoe UI', -apple-system, BlinkMacSystemFont, 'Helvetica Neue', Arial, sans-serif" font-size="14" fill="#15803d" font-weight="700" text-anchor="end">+2,10</text><text x="606" y="468" font-family="Inter, 'Segoe UI', -apple-system, BlinkMacSystemFont, 'Helvetica Neue', Arial, sans-serif" font-size="10" fill="#94a3b8" font-weight="400" text-anchor="end">observed 14:22</text><line x1="246" y1="480" x2="624" y2="480" stroke="#dbe3ec" stroke-width="1" stroke-linecap="round"/><text x="264" y="494" font-family="Inter, 'Segoe UI', -apple-system, BlinkMacSystemFont, 'Helvetica Neue', Arial, sans-serif" font-size="10" fill="#94a3b8" font-weight="400" text-anchor="start">Indication — not an offer</text><text x="606" y="494" font-family="Inter, 'Segoe UI', -apple-system, BlinkMacSystemFont, 'Helvetica Neue', Arial, sans-serif" font-size="11" fill="#0d9488" font-weight="600" text-anchor="end">Request a price →</text><rect x="640" y="326" width="378" height="174" rx="10" fill="#ffffff" stroke="#dbe3ec" stroke-width="1"/><rect x="658" y="344" width="56" height="20" rx="10" fill="#e0e7ff" stroke="#a5b4fc" stroke-width="1"/><text x="686" y="357.96" font-family="Inter, 'Segoe UI', -apple-system, BlinkMacSystemFont, 'Helvetica Neue', Arial, sans-serif" font-size="11" fill="#3730a3" font-weight="600" text-anchor="middle">PEAK</text><text x="658" y="388" font-family="Inter, 'Segoe UI', -apple-system, BlinkMacSystemFont, 'Helvetica Neue', Arial, sans-serif" font-size="11.5" fill="#64748b" font-weight="600" text-anchor="start">Next quarter</text><text x="658" y="410" font-family="Inter, 'Segoe UI', -apple-system, BlinkMacSystemFont, 'Helvetica Neue', Arial, sans-serif" font-size="13" fill="#0f172a" font-weight="600" text-anchor="start">Q4 2026</text><text x="658" y="448" font-family="Inter, 'Segoe UI', -apple-system, BlinkMacSystemFont, 'Helvetica Neue', Arial, sans-serif" font-size="30" fill="#0f172a" font-weight="700" text-anchor="start">€ 103,70</text><text x="658" y="468" font-family="Inter, 'Segoe UI', -apple-system, BlinkMacSystemFont, 'Helvetica Neue', Arial, sans-serif" font-size="10.5" fill="#94a3b8" font-weight="400" text-anchor="start">€ / MWh</text><text x="1000" y="448" font-family="Inter, 'Segoe UI', -apple-system, BlinkMacSystemFont, 'Helvetica Neue', Arial, sans-serif" font-size="14" fill="#dc2626" font-weight="700" text-anchor="end">−1,05</text><text x="1000" y="468" font-family="Inter, 'Segoe UI', -apple-system, BlinkMacSystemFont, 'Helvetica Neue', Arial, sans-serif" font-size="10" fill="#94a3b8" font-weight="400" text-anchor="end">observed 14:22</text><line x1="640" y1="480" x2="1018" y2="480" stroke="#dbe3ec" stroke-width="1" stroke-linecap="round"/><text x="658" y="494" font-family="Inter, 'Segoe UI', -apple-system, BlinkMacSystemFont, 'Helvetica Neue', Arial, sans-serif" font-size="10" fill="#94a3b8" font-weight="400" text-anchor="start">Indication — not an offer</text><text x="1000" y="494" font-family="Inter, 'Segoe UI', -apple-system, BlinkMacSystemFont, 'Helvetica Neue', Arial, sans-serif" font-size="11" fill="#0d9488" font-weight="600" text-anchor="end">Request a price →</text><rect x="1034" y="326" width="378" height="174" rx="10" fill="#ffffff" stroke="#fcd34d" stroke-width="1.5"/><rect x="1052" y="344" width="56" height="20" rx="10" fill="#e0e7ff" stroke="#a5b4fc" stroke-width="1"/><text x="1080" y="357.96" font-family="Inter, 'Segoe UI', -apple-system, BlinkMacSystemFont, 'Helvetica Neue', Arial, sans-serif" font-size="11" fill="#3730a3" font-weight="600" text-anchor="middle">PEAK</text><rect x="1316" y="344" width="78" height="20" rx="10" fill="#fef3c7" stroke="#fcd34d" stroke-width="1"/><text x="1355" y="357.96" font-family="Inter, 'Segoe UI', -apple-system, BlinkMacSystemFont, 'Helvetica Neue', Arial, sans-serif" font-size="11" fill="#92400e" font-weight="600" text-anchor="middle">STALE 1h42</text><text x="1052" y="388" font-family="Inter, 'Segoe UI', -apple-system, BlinkMacSystemFont, 'Helvetica Neue', Arial, sans-serif" font-size="11.5" fill="#64748b" font-weight="600" text-anchor="start">Next calendar year</text><text x="1052" y="410" font-family="Inter, 'Segoe UI', -apple-system, BlinkMacSystemFont, 'Helvetica Neue', Arial, sans-serif" font-size="13" fill="#0f172a" font-weight="600" text-anchor="start">Cal 2027</text><text x="1052" y="448" font-family="Inter, 'Segoe UI', -apple-system, BlinkMacSystemFont, 'Helvetica Neue', Arial, sans-serif" font-size="30" fill="#94a3b8" font-weight="700" text-anchor="start">€ 98,25</text><text x="1052" y="468" font-family="Inter, 'Segoe UI', -apple-system, BlinkMacSystemFont, 'Helvetica Neue', Arial, sans-serif" font-size="10.5" fill="#94a3b8" font-weight="400" text-anchor="start">€ / MWh</text><text x="1394" y="448" font-family="Inter, 'Segoe UI', -apple-system, BlinkMacSystemFont, 'Helvetica Neue', Arial, sans-serif" font-size="14" fill="#15803d" font-weight="700" text-anchor="end">+0,80</text><text x="1394" y="468" font-family="Inter, 'Segoe UI', -apple-system, BlinkMacSystemFont, 'Helvetica Neue', Arial, sans-serif" font-size="10" fill="#94a3b8" font-weight="400" text-anchor="end">observed 12:40</text><line x1="1034" y1="480" x2="1412" y2="480" stroke="#dbe3ec" stroke-width="1" stroke-linecap="round"/><text x="1052" y="494" font-family="Inter, 'Segoe UI', -apple-system, BlinkMacSystemFont, 'Helvetica Neue', Arial, sans-serif" font-size="10" fill="#94a3b8" font-weight="400" text-anchor="start">Indication — not an offer</text><text x="1394" y="494" font-family="Inter, 'Segoe UI', -apple-system, BlinkMacSystemFont, 'Helvetica Neue', Arial, sans-serif" font-size="11" fill="#0d9488" font-weight="600" text-anchor="end">Request a price →</text><rect x="246" y="516" width="1166" height="240" rx="10" fill="#ffffff" stroke="#dbe3ec" stroke-width="1"/><text x="264" y="542" font-family="Inter, 'Segoe UI', -apple-system, BlinkMacSystemFont, 'Helvetica Neue', Arial, sans-serif" font-size="13.5" fill="#0f172a" font-weight="700" text-anchor="start">Base — next month · 90-day trend</text><text x="1394" y="542" font-family="Inter, 'Segoe UI', -apple-system, BlinkMacSystemFont, 'Helvetica Neue', Arial, sans-serif" font-size="11.5" fill="#64748b" font-weight="400" text-anchor="end">Montel · NL power</text><line x1="246" y1="556" x2="1412" y2="556" stroke="#dbe3ec" stroke-width="1" stroke-linecap="round"/><line x1="308" y1="594" x2="1374" y2="594" stroke="#dbe3ec" stroke-width="1" stroke-dasharray="3 4" stroke-linecap="round"/><text x="298" y="598" font-family="Inter, 'Segoe UI', -apple-system, BlinkMacSystemFont, 'Helvetica Neue', Arial, sans-serif" font-size="10" fill="#94a3b8" font-weight="400" text-anchor="end">86</text><line x1="308" y1="623" x2="1374" y2="623" stroke="#dbe3ec" stroke-width="1" stroke-dasharray="3 4" stroke-linecap="round"/><text x="298" y="627" font-family="Inter, 'Segoe UI', -apple-system, BlinkMacSystemFont, 'Helvetica Neue', Arial, sans-serif" font-size="10" fill="#94a3b8" font-weight="400" text-anchor="end">82</text><line x1="308" y1="652" x2="1374" y2="652" stroke="#dbe3ec" stroke-width="1" stroke-dasharray="3 4" stroke-linecap="round"/><text x="298" y="656" font-family="Inter, 'Segoe UI', -apple-system, BlinkMacSystemFont, 'Helvetica Neue', Arial, sans-serif" font-size="10" fill="#94a3b8" font-weight="400" text-anchor="end">78</text><line x1="308" y1="681" x2="1374" y2="681" stroke="#dbe3ec" stroke-width="1" stroke-dasharray="3 4" stroke-linecap="round"/><text x="298" y="685" font-family="Inter, 'Segoe UI', -apple-system, BlinkMacSystemFont, 'Helvetica Neue', Arial, sans-serif" font-size="10" fill="#94a3b8" font-weight="400" text-anchor="end">74</text><line x1="308" y1="710" x2="1374" y2="710" stroke="#c3cede" stroke-width="1" stroke-linecap="round"/><text x="298" y="714" font-family="Inter, 'Segoe UI', -apple-system, BlinkMacSystemFont, 'Helvetica Neue', Arial, sans-serif" font-size="10" fill="#94a3b8" font-weight="400" text-anchor="end">70</text><text x="308" y="728" font-family="Inter, 'Segoe UI', -apple-system, BlinkMacSystemFont, 'Helvetica Neue', Arial, sans-serif" font-size="10" fill="#94a3b8" font-weight="400" text-anchor="start">1 May</text><text x="521.2" y="728" font-family="Inter, 'Segoe UI', -apple-system, BlinkMacSystemFont, 'Helvetica Neue', Arial, sans-serif" font-size="10" fill="#94a3b8" font-weight="400" text-anchor="middle">20 May</text><text x="734.4" y="728" font-family="Inter, 'Segoe UI', -apple-system, BlinkMacSystemFont, 'Helvetica Neue', Arial, sans-serif" font-size="10" fill="#94a3b8" font-weight="400" text-anchor="middle">8 Jun</text><text x="947.5999999999999" y="728" font-family="Inter, 'Segoe UI', -apple-system, BlinkMacSystemFont, 'Helvetica Neue', Arial, sans-serif" font-size="10" fill="#94a3b8" font-weight="400" text-anchor="middle">27 Jun</text><text x="1160.8" y="728" font-family="Inter, 'Segoe UI', -apple-system, BlinkMacSystemFont, 'Helvetica Neue', Arial, sans-serif" font-size="10" fill="#94a3b8" font-weight="400" text-anchor="middle">16 Jul</text><text x="1374" y="728" font-family="Inter, 'Segoe UI', -apple-system, BlinkMacSystemFont, 'Helvetica Neue', Arial, sans-serif" font-size="10" fill="#94a3b8" font-weight="400" text-anchor="end">30 Jul</text><path d="M 308.0 684.5 L 320.0 684.2 L 332.0 682.8 L 343.9 680.6 L 355.9 677.4 L 367.9 673.5 L 379.9 668.8 L 391.8 663.7 L 403.8 658.1 L 415.8 652.2 L 427.8 646.2 L 439.8 631.5 L 451.7 625.8 L 463.7 620.4 L 475.7 615.5 L 487.7 611.3 L 499.6 607.8 L 511.6 605.1 L 523.6 603.4 L 535.6 602.7 L 547.6 602.9 L 559.5 604.2 L 571.5 597.7 L 583.5 601.0 L 595.5 605.2 L 607.4 610.2 L 619.4 615.9 L 631.4 622.3 L 643.4 629.1 L 655.3 636.3 L 667.3 643.6 L 679.3 650.9 L 691.3 658.2 L 703.3 656.3 L 715.2 662.8 L 727.2 668.7 L 739.2 673.9 L 751.2 678.3 L 763.1 681.8 L 775.1 684.4 L 787.1 685.9 L 799.1 686.5 L 811.1 686.0 L 823.0 684.5 L 835.0 673.3 L 847.0 670.0 L 859.0 665.9 L 870.9 661.2 L 882.9 656.0 L 894.9 650.3 L 906.9 644.4 L 918.9 638.4 L 930.8 632.5 L 942.8 626.9 L 954.8 621.6 L 966.8 608.0 L 978.7 603.8 L 990.7 600.5 L 1002.7 598.0 L 1014.7 596.4 L 1026.7 595.8 L 1038.6 596.2 L 1050.6 597.7 L 1062.6 600.1 L 1074.6 603.6 L 1086.5 607.9 L 1098.5 604.2 L 1110.5 610.1 L 1122.5 616.5 L 1134.4 623.4 L 1146.4 630.6 L 1158.4 637.9 L 1170.4 645.3 L 1182.4 652.4 L 1194.3 659.3 L 1206.3 665.7 L 1218.3 671.5 L 1230.3 667.8 L 1242.2 672.1 L 1254.2 675.5 L 1266.2 677.9 L 1278.2 679.3 L 1290.2 679.6 L 1302.1 679.0 L 1314.1 677.3 L 1326.1 674.8 L 1338.1 671.4 L 1350.0 667.2 L 1362.0 653.6 L 1374.0 648.2 L 1374 710 L 308 710 Z" fill="#0d9488" stroke="none" stroke-width="2" stroke-linejoin="round" stroke-linecap="round" opacity="0.12"/><path d="M 308.0 684.5 L 320.0 684.2 L 332.0 682.8 L 343.9 680.6 L 355.9 677.4 L 367.9 673.5 L 379.9 668.8 L 391.8 663.7 L 403.8 658.1 L 415.8 652.2 L 427.8 646.2 L 439.8 631.5 L 451.7 625.8 L 463.7 620.4 L 475.7 615.5 L 487.7 611.3 L 499.6 607.8 L 511.6 605.1 L 523.6 603.4 L 535.6 602.7 L 547.6 602.9 L 559.5 604.2 L 571.5 597.7 L 583.5 601.0 L 595.5 605.2 L 607.4 610.2 L 619.4 615.9 L 631.4 622.3 L 643.4 629.1 L 655.3 636.3 L 667.3 643.6 L 679.3 650.9 L 691.3 658.2 L 703.3 656.3 L 715.2 662.8 L 727.2 668.7 L 739.2 673.9 L 751.2 678.3 L 763.1 681.8 L 775.1 684.4 L 787.1 685.9 L 799.1 686.5 L 811.1 686.0 L 823.0 684.5 L 835.0 673.3 L 847.0 670.0 L 859.0 665.9 L 870.9 661.2 L 882.9 656.0 L 894.9 650.3 L 906.9 644.4 L 918.9 638.4 L 930.8 632.5 L 942.8 626.9 L 954.8 621.6 L 966.8 608.0 L 978.7 603.8 L 990.7 600.5 L 1002.7 598.0 L 1014.7 596.4 L 1026.7 595.8 L 1038.6 596.2 L 1050.6 597.7 L 1062.6 600.1 L 1074.6 603.6 L 1086.5 607.9 L 1098.5 604.2 L 1110.5 610.1 L 1122.5 616.5 L 1134.4 623.4 L 1146.4 630.6 L 1158.4 637.9 L 1170.4 645.3 L 1182.4 652.4 L 1194.3 659.3 L 1206.3 665.7 L 1218.3 671.5 L 1230.3 667.8 L 1242.2 672.1 L 1254.2 675.5 L 1266.2 677.9 L 1278.2 679.3 L 1290.2 679.6 L 1302.1 679.0 L 1314.1 677.3 L 1326.1 674.8 L 1338.1 671.4 L 1350.0 667.2 L 1362.0 653.6 L 1374.0 648.2" fill="none" stroke="#0d9488" stroke-width="2" stroke-linejoin="round" stroke-linecap="round"/><circle cx="1374" cy="648.2363178912672" r="4" fill="#0d9488" stroke="#fff" stroke-width="2"/><text x="262" y="586" font-family="Inter, 'Segoe UI', -apple-system, BlinkMacSystemFont, 'Helvetica Neue', Arial, sans-serif" font-size="10" fill="#94a3b8" font-weight="400" text-anchor="start">€/MWh</text></svg>
